<mxfile host="app.diagrams.net" agent="Mozilla/5.0 (X11; Linux x86_64) AppleWebKit/537.36 (KHTML, like Gecko) Chrome/132.0.0.0 Safari/537.36" version="26.0.10">
  <diagram name="Page-1" id="2YBvvXClWsGukQMizWep">
    <mxGraphModel dx="568" dy="288" grid="1" gridSize="10" guides="1" tooltips="1" connect="1" arrows="1" fold="1" page="1" pageScale="1" pageWidth="850" pageHeight="1100" math="0" shadow="0">
      <root>
        <mxCell id="0" />
        <mxCell id="1" parent="0" />
        <mxCell id="lYcDMrduZLndRzqOPI6x-42" value="" style="edgeStyle=elbowEdgeStyle;rounded=0;orthogonalLoop=1;jettySize=auto;html=1;elbow=vertical;curved=0;" edge="1" parent="1" source="aM9ryv3xv72pqoxQDRHE-1" target="lYcDMrduZLndRzqOPI6x-10">
          <mxGeometry relative="1" as="geometry" />
        </mxCell>
        <mxCell id="aM9ryv3xv72pqoxQDRHE-1" value=":Provedor" style="shape=umlLifeline;perimeter=lifelinePerimeter;whiteSpace=wrap;html=1;container=0;dropTarget=0;collapsible=0;recursiveResize=0;outlineConnect=0;portConstraint=eastwest;newEdgeStyle={&quot;edgeStyle&quot;:&quot;elbowEdgeStyle&quot;,&quot;elbow&quot;:&quot;vertical&quot;,&quot;curved&quot;:0,&quot;rounded&quot;:0};" parent="1" vertex="1">
          <mxGeometry x="40" y="40" width="100" height="300" as="geometry" />
        </mxCell>
        <mxCell id="aM9ryv3xv72pqoxQDRHE-3" value="dispatch" style="html=1;verticalAlign=bottom;startArrow=oval;endArrow=block;startSize=8;edgeStyle=elbowEdgeStyle;elbow=vertical;curved=0;rounded=0;" parent="aM9ryv3xv72pqoxQDRHE-1" edge="1">
          <mxGeometry relative="1" as="geometry">
            <mxPoint x="-15" y="70" as="sourcePoint" />
            <mxPoint x="45" y="70.10344827586209" as="targetPoint" />
          </mxGeometry>
        </mxCell>
        <mxCell id="lYcDMrduZLndRzqOPI6x-11" value="" style="html=1;points=[[0,0,0,0,5],[0,1,0,0,-5],[1,0,0,0,5],[1,1,0,0,-5]];perimeter=orthogonalPerimeter;outlineConnect=0;targetShapes=umlLifeline;portConstraint=eastwest;newEdgeStyle={&quot;curved&quot;:0,&quot;rounded&quot;:0};" vertex="1" parent="aM9ryv3xv72pqoxQDRHE-1">
          <mxGeometry x="45" y="70" width="10" height="50" as="geometry" />
        </mxCell>
        <mxCell id="lYcDMrduZLndRzqOPI6x-29" value="" style="html=1;points=[[0,0,0,0,5],[0,1,0,0,-5],[1,0,0,0,5],[1,1,0,0,-5]];perimeter=orthogonalPerimeter;outlineConnect=0;targetShapes=umlLifeline;portConstraint=eastwest;newEdgeStyle={&quot;curved&quot;:0,&quot;rounded&quot;:0};" vertex="1" parent="aM9ryv3xv72pqoxQDRHE-1">
          <mxGeometry x="45" y="180" width="10" height="20" as="geometry" />
        </mxCell>
        <mxCell id="aM9ryv3xv72pqoxQDRHE-5" value=":Funcionalidade" style="shape=umlLifeline;perimeter=lifelinePerimeter;whiteSpace=wrap;html=1;container=0;dropTarget=0;collapsible=0;recursiveResize=0;outlineConnect=0;portConstraint=eastwest;newEdgeStyle={&quot;edgeStyle&quot;:&quot;elbowEdgeStyle&quot;,&quot;elbow&quot;:&quot;vertical&quot;,&quot;curved&quot;:0,&quot;rounded&quot;:0};" parent="1" vertex="1">
          <mxGeometry x="180" y="40" width="100" height="300" as="geometry" />
        </mxCell>
        <mxCell id="lYcDMrduZLndRzqOPI6x-10" value="" style="html=1;points=[[0,0,0,0,5],[0,1,0,0,-5],[1,0,0,0,5],[1,1,0,0,-5]];perimeter=orthogonalPerimeter;outlineConnect=0;targetShapes=umlLifeline;portConstraint=eastwest;newEdgeStyle={&quot;curved&quot;:0,&quot;rounded&quot;:0};" vertex="1" parent="aM9ryv3xv72pqoxQDRHE-5">
          <mxGeometry x="45" y="70" width="10" height="70" as="geometry" />
        </mxCell>
        <mxCell id="lYcDMrduZLndRzqOPI6x-34" value="" style="html=1;points=[[0,0,0,0,5],[0,1,0,0,-5],[1,0,0,0,5],[1,1,0,0,-5]];perimeter=orthogonalPerimeter;outlineConnect=0;targetShapes=umlLifeline;portConstraint=eastwest;newEdgeStyle={&quot;curved&quot;:0,&quot;rounded&quot;:0};" vertex="1" parent="aM9ryv3xv72pqoxQDRHE-5">
          <mxGeometry x="45" y="210" width="10" height="40" as="geometry" />
        </mxCell>
        <mxCell id="lYcDMrduZLndRzqOPI6x-1" value=":Cliente" style="shape=umlLifeline;perimeter=lifelinePerimeter;whiteSpace=wrap;html=1;container=0;dropTarget=0;collapsible=0;recursiveResize=0;outlineConnect=0;portConstraint=eastwest;newEdgeStyle={&quot;edgeStyle&quot;:&quot;elbowEdgeStyle&quot;,&quot;elbow&quot;:&quot;vertical&quot;,&quot;curved&quot;:0,&quot;rounded&quot;:0};" vertex="1" parent="1">
          <mxGeometry x="325" y="40" width="100" height="340" as="geometry" />
        </mxCell>
        <mxCell id="lYcDMrduZLndRzqOPI6x-14" value="" style="html=1;points=[[0,0,0,0,5],[0,1,0,0,-5],[1,0,0,0,5],[1,1,0,0,-5]];perimeter=orthogonalPerimeter;outlineConnect=0;targetShapes=umlLifeline;portConstraint=eastwest;newEdgeStyle={&quot;curved&quot;:0,&quot;rounded&quot;:0};" vertex="1" parent="lYcDMrduZLndRzqOPI6x-1">
          <mxGeometry x="45" y="90" width="10" height="20" as="geometry" />
        </mxCell>
        <mxCell id="lYcDMrduZLndRzqOPI6x-39" value="" style="html=1;points=[[0,0,0,0,5],[0,1,0,0,-5],[1,0,0,0,5],[1,1,0,0,-5]];perimeter=orthogonalPerimeter;outlineConnect=0;targetShapes=umlLifeline;portConstraint=eastwest;newEdgeStyle={&quot;curved&quot;:0,&quot;rounded&quot;:0};" vertex="1" parent="lYcDMrduZLndRzqOPI6x-1">
          <mxGeometry x="45" y="270" width="10" height="40" as="geometry" />
        </mxCell>
        <mxCell id="lYcDMrduZLndRzqOPI6x-3" value=":Simulador&lt;br&gt;(AdversÃ¡rio)" style="shape=umlLifeline;perimeter=lifelinePerimeter;whiteSpace=wrap;html=1;container=0;dropTarget=0;collapsible=0;recursiveResize=0;outlineConnect=0;portConstraint=eastwest;newEdgeStyle={&quot;edgeStyle&quot;:&quot;elbowEdgeStyle&quot;,&quot;elbow&quot;:&quot;vertical&quot;,&quot;curved&quot;:0,&quot;rounded&quot;:0};" vertex="1" parent="1">
          <mxGeometry x="460" y="40" width="100" height="300" as="geometry" />
        </mxCell>
        <mxCell id="lYcDMrduZLndRzqOPI6x-15" value="" style="html=1;points=[[0,0,0,0,5],[0,1,0,0,-5],[1,0,0,0,5],[1,1,0,0,-5]];perimeter=orthogonalPerimeter;outlineConnect=0;targetShapes=umlLifeline;portConstraint=eastwest;newEdgeStyle={&quot;curved&quot;:0,&quot;rounded&quot;:0};" vertex="1" parent="lYcDMrduZLndRzqOPI6x-3">
          <mxGeometry x="45" y="124" width="10" height="20" as="geometry" />
        </mxCell>
        <mxCell id="lYcDMrduZLndRzqOPI6x-12" style="edgeStyle=orthogonalEdgeStyle;rounded=0;orthogonalLoop=1;jettySize=auto;html=1;curved=0;exitX=1;exitY=0;exitDx=0;exitDy=5;exitPerimeter=0;entryX=0;entryY=0;entryDx=0;entryDy=5;entryPerimeter=0;" edge="1" parent="1" source="lYcDMrduZLndRzqOPI6x-11" target="lYcDMrduZLndRzqOPI6x-10">
          <mxGeometry relative="1" as="geometry" />
        </mxCell>
        <mxCell id="lYcDMrduZLndRzqOPI6x-19" value="(Provision, m)" style="edgeLabel;html=1;align=center;verticalAlign=middle;resizable=0;points=[];" vertex="1" connectable="0" parent="lYcDMrduZLndRzqOPI6x-12">
          <mxGeometry x="-0.0699" y="2" relative="1" as="geometry">
            <mxPoint x="4" y="17" as="offset" />
          </mxGeometry>
        </mxCell>
        <mxCell id="lYcDMrduZLndRzqOPI6x-13" value=":Mediador" style="shape=umlLifeline;perimeter=lifelinePerimeter;whiteSpace=wrap;html=1;container=0;dropTarget=0;collapsible=0;recursiveResize=0;outlineConnect=0;portConstraint=eastwest;newEdgeStyle={&quot;edgeStyle&quot;:&quot;elbowEdgeStyle&quot;,&quot;elbow&quot;:&quot;vertical&quot;,&quot;curved&quot;:0,&quot;rounded&quot;:0};" vertex="1" parent="1">
          <mxGeometry x="600" y="40" width="100" height="300" as="geometry" />
        </mxCell>
        <mxCell id="lYcDMrduZLndRzqOPI6x-30" value="" style="html=1;points=[[0,0,0,0,5],[0,1,0,0,-5],[1,0,0,0,5],[1,1,0,0,-5]];perimeter=orthogonalPerimeter;outlineConnect=0;targetShapes=umlLifeline;portConstraint=eastwest;newEdgeStyle={&quot;curved&quot;:0,&quot;rounded&quot;:0};" vertex="1" parent="lYcDMrduZLndRzqOPI6x-13">
          <mxGeometry x="45" y="190" width="10" height="90" as="geometry" />
        </mxCell>
        <mxCell id="lYcDMrduZLndRzqOPI6x-17" style="edgeStyle=orthogonalEdgeStyle;rounded=0;orthogonalLoop=1;jettySize=auto;html=1;curved=0;exitX=1;exitY=0;exitDx=0;exitDy=5;exitPerimeter=0;entryX=0;entryY=0;entryDx=0;entryDy=5;entryPerimeter=0;" edge="1" parent="1" source="lYcDMrduZLndRzqOPI6x-10" target="lYcDMrduZLndRzqOPI6x-14">
          <mxGeometry relative="1" as="geometry">
            <Array as="points">
              <mxPoint x="235" y="135" />
            </Array>
          </mxGeometry>
        </mxCell>
        <mxCell id="lYcDMrduZLndRzqOPI6x-18" style="edgeStyle=orthogonalEdgeStyle;rounded=0;orthogonalLoop=1;jettySize=auto;html=1;curved=0;exitX=1;exitY=1;exitDx=0;exitDy=-5;exitPerimeter=0;" edge="1" parent="1" source="lYcDMrduZLndRzqOPI6x-10" target="lYcDMrduZLndRzqOPI6x-15">
          <mxGeometry relative="1" as="geometry">
            <mxPoint x="240" y="170" as="sourcePoint" />
            <Array as="points">
              <mxPoint x="235" y="170" />
            </Array>
          </mxGeometry>
        </mxCell>
        <mxCell id="lYcDMrduZLndRzqOPI6x-20" value="r, c" style="text;html=1;align=center;verticalAlign=middle;resizable=0;points=[];autosize=1;strokeColor=none;fillColor=none;" vertex="1" parent="1">
          <mxGeometry x="280" y="130" width="40" height="30" as="geometry" />
        </mxCell>
        <mxCell id="lYcDMrduZLndRzqOPI6x-22" value="r, |m|" style="text;html=1;align=center;verticalAlign=middle;resizable=0;points=[];autosize=1;strokeColor=none;fillColor=none;" vertex="1" parent="1">
          <mxGeometry x="275" y="170" width="50" height="30" as="geometry" />
        </mxCell>
        <mxCell id="lYcDMrduZLndRzqOPI6x-23" style="edgeStyle=orthogonalEdgeStyle;rounded=0;orthogonalLoop=1;jettySize=auto;html=1;curved=0;" edge="1" parent="1" source="lYcDMrduZLndRzqOPI6x-10" target="lYcDMrduZLndRzqOPI6x-11">
          <mxGeometry relative="1" as="geometry">
            <mxPoint x="100" y="155" as="targetPoint" />
            <Array as="points">
              <mxPoint x="130" y="155" />
              <mxPoint x="130" y="155" />
            </Array>
          </mxGeometry>
        </mxCell>
        <mxCell id="lYcDMrduZLndRzqOPI6x-25" value="r, k" style="edgeLabel;html=1;align=center;verticalAlign=middle;resizable=0;points=[];" vertex="1" connectable="0" parent="lYcDMrduZLndRzqOPI6x-23">
          <mxGeometry x="0.0371" y="3" relative="1" as="geometry">
            <mxPoint y="12" as="offset" />
          </mxGeometry>
        </mxCell>
        <mxCell id="lYcDMrduZLndRzqOPI6x-26" value="" style="line;strokeWidth=1;fillColor=none;align=left;verticalAlign=middle;spacingTop=-1;spacingLeft=3;spacingRight=3;rotatable=0;labelPosition=right;points=[];portConstraint=eastwest;strokeColor=inherit;" vertex="1" parent="1">
          <mxGeometry x="20" y="210" width="720" height="8" as="geometry" />
        </mxCell>
        <mxCell id="lYcDMrduZLndRzqOPI6x-27" value="Etapa 1 - provisionamento" style="text;align=center;fontStyle=1;verticalAlign=middle;spacingLeft=3;spacingRight=3;strokeColor=none;rotatable=0;points=[[0,0.5],[1,0.5]];portConstraint=eastwest;html=1;" vertex="1" parent="1">
          <mxGeometry x="60" y="184" width="80" height="26" as="geometry" />
        </mxCell>
        <mxCell id="lYcDMrduZLndRzqOPI6x-31" style="edgeStyle=orthogonalEdgeStyle;rounded=0;orthogonalLoop=1;jettySize=auto;html=1;curved=0;entryX=0;entryY=0;entryDx=0;entryDy=5;entryPerimeter=0;" edge="1" parent="1" source="lYcDMrduZLndRzqOPI6x-29" target="lYcDMrduZLndRzqOPI6x-30">
          <mxGeometry relative="1" as="geometry">
            <Array as="points">
              <mxPoint x="230" y="235" />
              <mxPoint x="230" y="235" />
            </Array>
          </mxGeometry>
        </mxCell>
        <mxCell id="lYcDMrduZLndRzqOPI6x-32" value="r, k" style="edgeLabel;html=1;align=center;verticalAlign=middle;resizable=0;points=[];" vertex="1" connectable="0" parent="lYcDMrduZLndRzqOPI6x-31">
          <mxGeometry x="-0.0627" relative="1" as="geometry">
            <mxPoint x="-243" y="15" as="offset" />
          </mxGeometry>
        </mxCell>
        <mxCell id="lYcDMrduZLndRzqOPI6x-35" style="edgeStyle=orthogonalEdgeStyle;rounded=0;orthogonalLoop=1;jettySize=auto;html=1;curved=0;exitX=0;exitY=1;exitDx=0;exitDy=-5;exitPerimeter=0;entryX=1;entryY=0;entryDx=0;entryDy=5;entryPerimeter=0;" edge="1" parent="1" source="lYcDMrduZLndRzqOPI6x-30" target="lYcDMrduZLndRzqOPI6x-34">
          <mxGeometry relative="1" as="geometry">
            <Array as="points">
              <mxPoint x="645" y="255" />
            </Array>
          </mxGeometry>
        </mxCell>
        <mxCell id="lYcDMrduZLndRzqOPI6x-36" value="(Verify, r, k)" style="edgeLabel;html=1;align=center;verticalAlign=middle;resizable=0;points=[];" vertex="1" connectable="0" parent="lYcDMrduZLndRzqOPI6x-35">
          <mxGeometry x="-0.2503" y="2" relative="1" as="geometry">
            <mxPoint x="-89" y="13" as="offset" />
          </mxGeometry>
        </mxCell>
        <mxCell id="lYcDMrduZLndRzqOPI6x-37" style="edgeStyle=orthogonalEdgeStyle;rounded=0;orthogonalLoop=1;jettySize=auto;html=1;curved=0;exitX=1;exitY=1;exitDx=0;exitDy=-5;exitPerimeter=0;" edge="1" parent="1" source="lYcDMrduZLndRzqOPI6x-34" target="lYcDMrduZLndRzqOPI6x-30">
          <mxGeometry relative="1" as="geometry">
            <mxPoint x="640" y="285" as="targetPoint" />
            <Array as="points">
              <mxPoint x="540" y="285" />
              <mxPoint x="540" y="285" />
            </Array>
          </mxGeometry>
        </mxCell>
        <mxCell id="lYcDMrduZLndRzqOPI6x-38" value="(OK, r, k)" style="edgeLabel;html=1;align=center;verticalAlign=middle;resizable=0;points=[];" vertex="1" connectable="0" parent="1">
          <mxGeometry x="440.0007094728436" y="300" as="geometry" />
        </mxCell>
        <mxCell id="lYcDMrduZLndRzqOPI6x-40" style="edgeStyle=orthogonalEdgeStyle;rounded=0;orthogonalLoop=1;jettySize=auto;html=1;curved=0;exitX=0;exitY=1;exitDx=0;exitDy=-5;exitPerimeter=0;entryX=1;entryY=0;entryDx=0;entryDy=5;entryPerimeter=0;" edge="1" parent="1" source="lYcDMrduZLndRzqOPI6x-30" target="lYcDMrduZLndRzqOPI6x-39">
          <mxGeometry relative="1" as="geometry" />
        </mxCell>
        <mxCell id="lYcDMrduZLndRzqOPI6x-41" value="r, k" style="edgeLabel;html=1;align=center;verticalAlign=middle;resizable=0;points=[];" vertex="1" connectable="0" parent="lYcDMrduZLndRzqOPI6x-40">
          <mxGeometry x="-0.1997" y="-1" relative="1" as="geometry">
            <mxPoint x="-9" y="16" as="offset" />
          </mxGeometry>
        </mxCell>
      </root>
    </mxGraphModel>
  </diagram>
</mxfile>
